<svg width="32" height="32" viewBox="0 0 32 32" fill="none" xmlns="http://www.w3.org/2000/svg">
  <rect width="32" height="32" rx="8" fill="#0f0f0f"/>
  <path d="M8 12C8 10.8954 8.89543 10 10 10H14C15.1046 10 16 10.8954 16 12V20C16 21.1046 15.1046 22 14 22H10C8.89543 22 8 21.1046 8 20V12Z" fill="#ff6b35"/>
  <path d="M16 12C16 10.8954 16.8954 10 18 10H22C23.1046 10 24 10.8954 24 12V20C24 21.1046 23.1046 22 22 22H18C16.8954 22 16 21.1046 16 20V12Z" fill="#ff8c42"/>
  <path d="M12 14H20" stroke="#ffffff" stroke-width="2" stroke-linecap="round"/>
  <path d="M12 18H20" stroke="#ffffff" stroke-width="2" stroke-linecap="round"/>
  <circle cx="10" cy="6" r="2" fill="#ff6b35"/>
  <circle cx="22" cy="26" r="2" fill="#ff8c42"/>
</svg>
